<svg width="48" height="48" viewBox="0 0 48 48" fill="none" xmlns="http://www.w3.org/2000/svg">
<g id="Icon Frame">
<path id="Subtract" fill-rule="evenodd" clip-rule="evenodd" d="M4 24C4 12.9543 12.9543 4 24 4C35.0457 4 44 12.9543 44 24C44 35.0457 35.0457 44 24 44C12.9543 44 4 35.0457 4 24ZM31.4142 22.5858L25.4142 16.5858C24.6332 15.8047 23.3668 15.8047 22.5858 16.5858C21.8047 17.3668 21.8047 18.6332 22.5858 19.4142L25.1716 22H18C16.8954 22 16 22.8954 16 24C16 25.1046 16.8954 26 18 26H25.1716L22.5858 28.5858C21.8047 29.3668 21.8047 30.6332 22.5858 31.4142C23.3668 32.1953 24.6332 32.1953 25.4142 31.4142L31.4142 25.4142C32.1953 24.6332 32.1953 23.3668 31.4142 22.5858Z" fill="#E03943"/>
</g>
</svg>
