<svg width="36" height="32" viewBox="0 0 36 32" fill="none" xmlns="http://www.w3.org/2000/svg">
<g id="Logo">
<path id="Vector" d="M28.065 12.4407C29.6799 12.4061 31.0145 11.1252 31.1058 9.51398C31.2097 7.71705 29.7775 6.22223 27.9989 6.22223C26.2204 6.22223 24.8889 7.61635 24.8889 9.33146C24.8889 11.0466 26.3149 12.4785 28.0619 12.4438L28.065 12.4407Z" fill="#E03943"/>
<path id="Vector_2" d="M7.03147 12.4011C9.15957 12.7506 10.9729 10.9342 10.6234 8.80607C10.4094 7.50278 9.38624 6.47967 8.08608 6.2656C5.95798 5.91617 4.13839 7.72944 4.48783 9.85752C4.7019 11.1608 5.72817 12.1871 7.03147 12.4011Z" fill="#E03943"/>
<path id="Vector_3" d="M35.4046 19.856L35.08 19.2456C34.3546 17.8756 33.1456 16.8307 31.6915 16.3066C28.5447 15.1755 25.2721 14.0012 22.1385 12.8767C21.2508 12.5583 20.8533 11.5266 21.2972 10.694C22.6652 8.12325 24.1193 5.38661 25.4575 2.8689C25.6232 2.56041 25.6066 2.18557 25.4178 1.88703L25.176 1.50887C23.8544 -0.567654 20.7937 -0.448237 19.641 1.72449C19.0978 2.73953 18.5578 4.418 18.0279 5.58895C17.9318 5.79793 17.637 5.79793 17.5409 5.58895C17.0076 4.41137 16.4644 2.72626 15.9179 1.70127C14.7685 -0.46814 11.7045 -0.587557 10.3829 1.48565L10.1411 1.86712C9.95226 2.16567 9.9357 2.5405 10.1013 2.849C11.4395 5.3667 12.8937 8.10003 14.2617 10.6741C14.7055 11.5067 14.3047 12.5384 13.4203 12.8568C10.2868 13.9813 7.01748 15.1556 3.8674 16.2867C2.41658 16.8141 1.20756 17.8557 0.478831 19.2224L0.154217 19.8327C-0.306205 20.6985 0.319836 21.7434 1.29699 21.7434H9.93901C10.2239 21.7434 10.4061 22.0453 10.2769 22.2974C8.85917 25.0572 7.31229 28.0659 5.89127 30.8224C5.7654 31.0679 5.77203 31.3598 5.91115 31.5986C6.05689 31.8474 6.32188 32 6.61006 32H28.9356C29.2237 32 29.4887 31.8474 29.6345 31.5986C29.7736 31.3598 29.7802 31.0679 29.6543 30.8224C28.2598 28.109 26.7262 25.0605 25.3251 22.3173C25.1959 22.0619 25.378 21.76 25.6629 21.76H34.2586C35.2357 21.76 35.8618 20.7184 35.4013 19.8526L35.4046 19.856ZM18.1206 28.8354C13.0692 29.1141 9.73364 23.5877 12.1119 19.1129C13.8576 15.819 15.6363 12.4853 17.3853 9.198C17.5509 8.88619 17.9981 8.88619 18.167 9.198C19.9225 12.4919 21.7046 15.8356 23.4569 19.1361C25.6729 23.3058 22.96 28.5701 18.1239 28.8388L18.1206 28.8354Z" fill="#E03943"/>
</g>
</svg>