<svg width="230" height="155" viewBox="0 0 230 155" fill="none" xmlns="http://www.w3.org/2000/svg">
<g id="logo loading">
<g id="Group">
<path id="Vector" d="M140.951 33.1725C145.372 33.0829 149.026 29.564 149.283 25.1486C149.569 20.2288 145.647 16.1328 140.772 16.1328C135.897 16.1328 132.26 19.9543 132.26 24.6443C132.26 29.3342 136.166 33.2622 140.951 33.1669V33.1725Z" fill="#FFFCF8"/>
<path id="Vector_2" d="M86.3189 33.0045C92.1519 33.9627 97.1109 28.9813 96.1583 23.1539C95.5756 19.5901 92.7739 16.7885 89.2046 16.2001C83.3771 15.242 78.4013 20.2065 79.3539 26.0396C79.9422 29.6089 82.7439 32.4162 86.3189 33.0045Z" fill="#FFFCF8"/>
<path id="Vector_3" d="M160.131 51.6075L159.285 50.0218C157.397 46.4636 154.248 43.7516 150.471 42.3844C142.279 39.4483 133.768 36.3945 125.615 33.4695C123.306 32.6402 122.27 29.9619 123.424 27.799C126.982 21.1142 130.77 14.0092 134.25 7.46452C134.681 6.65764 134.642 5.68266 134.149 4.9094L133.516 3.92322C130.075 -1.47278 122.107 -1.1646 119.109 4.48355C117.697 7.12271 116.291 11.4821 114.913 14.5247C114.666 15.0682 113.893 15.0682 113.646 14.5247C112.262 11.4597 110.844 7.08349 109.421 4.42191C106.423 -1.21503 98.4556 -1.52882 95.0151 3.86158L94.382 4.85897C93.8889 5.63223 93.8496 6.60721 94.2811 7.41409C97.7607 13.9532 101.549 21.0638 105.107 27.7485C106.255 29.9114 105.224 32.5898 102.916 33.4191C94.763 36.344 86.2515 39.3979 78.0595 42.334C74.2772 43.7012 71.1338 46.4132 69.2455 49.9657V49.9769L68.3993 51.5571C67.2058 53.8096 68.8308 56.5216 71.3747 56.5216H93.8608C94.6004 56.5216 95.0768 57.3005 94.7406 57.9561C91.048 65.1283 87.0248 72.9449 83.3322 80.1116C83.0016 80.7504 83.024 81.5068 83.3826 82.1288C83.758 82.7732 84.4529 83.1766 85.1981 83.1766H143.305C144.055 83.1766 144.745 82.7788 145.12 82.1288C145.479 81.5068 145.501 80.7504 145.17 80.1116C141.54 73.057 137.55 65.1395 133.902 58.0121C133.566 57.3509 134.042 56.5664 134.787 56.5664H157.156C159.7 56.5664 161.33 53.8544 160.131 51.6131V51.6075ZM115.148 74.9509C102.002 75.6738 93.3229 61.3125 99.509 49.68C104.053 41.1181 108.682 32.4553 113.232 23.9103C113.663 23.0978 114.828 23.0978 115.26 23.9103C119.827 32.4721 124.466 41.1573 129.033 49.7416C134.799 60.5784 127.738 74.2617 115.153 74.9509H115.148Z" fill="#FFFCF8"/>
</g>
<g id="Group_2">
<path id="Vector_4" d="M28.9244 153.935C30.1571 152.002 31.2106 147.256 31.2106 143.121C31.2106 142.331 31.2105 141.535 31.1209 140.745L30.5045 135.472H15.2074L12.7476 140.745C11.2515 143.911 10.2878 147.957 10.2878 151.033C10.2878 152.176 10.4614 153.229 10.8144 153.935H0C3.42923 150.506 5.97875 146.376 8.97093 140.308L30.2468 96.5181H34.9928L41.4982 140.308C42.378 146.113 43.3473 150.506 45.5438 153.935H28.9244ZM30.1571 132.659L27.3442 109.361L16.5298 132.659H30.1571Z" fill="#FFFCF8"/>
<path id="Vector_5" d="M81.5955 109.445L77.6396 121.929C75.3534 117.531 72.8936 116.214 71.0445 116.214C67.1782 116.214 65.5925 121.576 64.2757 129.404L62.4266 140.398C61.9895 143.121 61.6365 145.497 61.6365 148.046C61.6365 149.806 61.8102 151.739 62.3425 153.935H48.8889C51.6121 148.836 52.4919 145.144 53.2876 140.398L55.3104 128.44C55.753 125.717 56.1004 122.904 56.1004 120.265C56.1004 117.805 55.7474 115.519 54.9574 113.406C58.4762 112 61.9895 110.504 65.2451 108.924C65.9511 110.42 66.2144 113.586 66.2144 115.956C66.2144 116.662 66.2144 117.278 66.1247 117.979C69.2906 110.594 72.8936 109.008 77.9085 109.008C79.1413 109.008 80.7214 109.182 81.6011 109.451L81.5955 109.445Z" fill="#FFFCF8"/>
<path id="Vector_6" d="M92.3204 140.571C92.2308 141.277 92.0571 142.152 92.0571 143.121C92.0571 145.144 92.6735 147.256 95.66 147.256C97.5091 147.256 99.263 146.466 101.728 144.88C100.938 149.89 95.66 154.905 89.3339 154.905C84.9353 154.905 82.3857 152.355 82.3857 147.077C82.3857 145.844 82.5594 144.438 82.7388 142.947L87.8378 112.611H83.0021L83.8819 109.888H88.2804C88.6335 107.512 88.8968 105.579 89.1601 102.239C92.7631 101.006 96.1923 99.4262 99.6216 97.493L97.5091 109.893H107.797L106.828 112.616H97.0665L92.3204 140.577V140.571Z" fill="#FFFCF8"/>
<path id="Vector_7" d="M141.383 121.318C141.383 122.635 141.293 123.958 141.03 125.364L139.977 131.696H116.235C116.146 132.665 116.146 133.719 116.146 134.598C116.146 142.336 119.485 146.645 127.666 146.645C131.622 146.645 134.351 145.592 137.601 143.48C135.752 149.285 130.042 155 121.334 155C112.1 155 106.385 148.405 106.385 137.943C106.385 123.347 115.529 108.929 129.073 108.929C137.864 108.929 141.383 114.381 141.383 121.33V121.318ZM132.238 119.733C132.238 114.544 130.305 112.168 127.139 112.168C121.25 112.168 117.642 121.139 116.588 129.225H127.666C130.569 129.225 131.095 128.782 131.712 124.916C132.065 122.893 132.238 121.133 132.238 119.727V119.733Z" fill="#FFFCF8"/>
<path id="Vector_8" d="M174.885 109.445L170.929 121.929C168.643 117.531 166.183 116.214 164.334 116.214C160.468 116.214 158.882 121.576 157.565 129.404L155.716 140.398C155.279 143.121 154.926 145.497 154.926 148.046C154.926 149.806 155.1 151.739 155.632 153.935H142.179C144.902 148.836 145.782 145.144 146.577 140.398L148.6 128.44C149.043 125.717 149.39 122.904 149.39 120.265C149.39 117.805 149.037 115.519 148.247 113.406C151.766 112 155.279 110.504 158.535 108.924C159.241 110.42 159.504 113.586 159.504 115.956C159.504 116.662 159.504 117.278 159.415 117.979C162.58 110.594 166.183 109.008 171.198 109.008C172.431 109.008 174.011 109.182 174.891 109.451L174.885 109.445Z" fill="#FFFCF8"/>
<path id="Vector_9" d="M175.765 140.835L177.961 127.297C178.404 124.395 179.015 120.792 179.015 118.153C179.015 116.483 178.841 114.813 178.399 113.317C182.444 112.084 186.31 110.767 190.266 109.008L184.904 141.104C184.467 143.564 184.114 145.85 184.114 148.226C184.114 149.985 184.287 151.744 184.73 153.941H171.54C174.179 148.842 174.969 145.586 175.759 140.84L175.765 140.835ZM180.601 99.684C180.601 95.5544 184.03 92.1251 188.249 92.1251C191.678 92.1251 193.875 94.3216 193.875 97.4035C193.875 101.533 190.356 104.962 186.137 104.962C182.707 104.962 180.601 102.676 180.601 99.684Z" fill="#FFFCF8"/>
<path id="Vector_10" d="M229.282 120.086C229.282 121.671 229.109 123.425 228.666 125.891L226.38 139.255C225.763 143.211 225.41 145.497 225.41 147.783C225.41 149.716 225.674 151.655 226.29 153.935H216.356C215.918 152.882 215.739 151.386 215.739 149.626C215.739 149.1 215.739 148.573 215.829 147.777C212.31 151.913 207.301 154.636 201.938 154.636C196.576 154.636 193.146 151.47 193.146 146.898C193.146 138.633 201.501 135.114 208.976 132.564C216.187 130.188 219 128.519 219.264 127.023C219.97 122.977 220.143 121.134 220.143 119.374C220.143 114.628 218.384 112.079 214.691 112.079C210.382 112.079 208.096 115.334 208.096 120.517C208.096 122.277 208.36 124.12 208.802 126.059L198.688 125.532L198.952 122.893C200.005 114.718 207.39 109.002 217.067 109.002C224.979 109.002 229.288 112.521 229.288 120.08L229.282 120.086ZM217.768 135.299C217.768 134.593 217.062 134.329 214.955 134.329C206.516 134.329 203.087 136.615 203.087 142.505C203.087 146.023 205.283 148.31 208.713 148.31C211.172 148.31 213.638 147.52 216.098 145.85C216.361 144.001 216.804 141.188 217.594 136.531C217.684 136.005 217.768 135.652 217.768 135.299Z" fill="#FFFCF8"/>
</g>
</g>
</svg>
