<svg width="169" height="168" viewBox="0 0 169 168" fill="none" xmlns="http://www.w3.org/2000/svg">
<g id="ph:seal-check">
<path id="Vector" d="M148.721 67.4756C146.247 64.89 143.687 62.2256 142.723 59.8828C141.83 57.7369 141.777 54.18 141.725 50.7347C141.627 44.3297 141.522 37.0716 136.475 32.025C131.428 26.9784 124.17 26.8734 117.765 26.775C114.32 26.7225 110.763 26.67 108.617 25.7775C106.281 24.8128 103.61 22.2534 101.024 19.7794C96.4962 15.4284 91.3512 10.5 84.5 10.5C77.6488 10.5 72.5103 15.4284 67.9756 19.7794C65.39 22.2534 62.7256 24.8128 60.3828 25.7775C58.25 26.67 54.68 26.7225 51.2347 26.775C44.8297 26.8734 37.5716 26.9784 32.525 32.025C27.4784 37.0716 27.4062 44.3297 27.275 50.7347C27.2225 54.18 27.17 57.7369 26.2775 59.8828C25.3128 62.2191 22.7534 64.89 20.2794 67.4756C15.9284 72.0037 11 77.1488 11 84C11 90.8512 15.9284 95.9897 20.2794 100.524C22.7534 103.11 25.3128 105.774 26.2775 108.117C27.17 110.263 27.2225 113.82 27.275 117.265C27.3734 123.67 27.4784 130.928 32.525 135.975C37.5716 141.022 44.8297 141.127 51.2347 141.225C54.68 141.277 58.2369 141.33 60.3828 142.223C62.7191 143.187 65.39 145.747 67.9756 148.221C72.5037 152.572 77.6488 157.5 84.5 157.5C91.3512 157.5 96.4897 152.572 101.024 148.221C103.61 145.747 106.274 143.187 108.617 142.223C110.763 141.33 114.32 141.277 117.765 141.225C124.17 141.127 131.428 141.022 136.475 135.975C141.522 130.928 141.627 123.67 141.725 117.265C141.777 113.82 141.83 110.263 142.723 108.117C143.687 105.781 146.247 103.11 148.721 100.524C153.072 95.9962 158 90.8512 158 84C158 77.1488 153.072 72.0103 148.721 67.4756ZM141.141 93.2597C137.997 96.5409 134.742 99.9338 133.017 104.101C131.363 108.104 131.291 112.678 131.225 117.108C131.159 121.702 131.087 126.512 129.046 128.546C127.005 130.581 122.228 130.659 117.608 130.725C113.178 130.791 108.604 130.863 104.601 132.517C100.434 134.242 97.0409 137.497 93.7597 140.641C90.4784 143.784 87.125 147 84.5 147C81.875 147 78.4953 143.771 75.2403 140.641C71.9853 137.511 68.5663 134.242 64.3991 132.517C60.3959 130.863 55.8219 130.791 51.3922 130.725C46.7984 130.659 41.9881 130.587 39.9537 128.546C37.9194 126.505 37.8406 121.728 37.775 117.108C37.7094 112.678 37.6372 108.104 35.9834 104.101C34.2575 99.9338 31.0025 96.5409 27.8591 93.2597C24.7156 89.9784 21.5 86.625 21.5 84C21.5 81.375 24.7287 77.9953 27.8591 74.7403C30.9894 71.4853 34.2575 68.0663 35.9834 63.8991C37.6372 59.8959 37.7094 55.3219 37.775 50.8922C37.8406 46.2984 37.9128 41.4881 39.9537 39.4537C41.9947 37.4194 46.7722 37.3406 51.3922 37.275C55.8219 37.2094 60.3959 37.1372 64.3991 35.4834C68.5663 33.7575 71.9591 30.5025 75.2403 27.3591C78.5216 24.2156 81.875 21 84.5 21C87.125 21 90.5047 24.2287 93.7597 27.3591C97.0147 30.4894 100.434 33.7575 104.601 35.4834C108.604 37.1372 113.178 37.2094 117.608 37.275C122.202 37.3406 127.012 37.4128 129.046 39.4537C131.081 41.4947 131.159 46.2722 131.225 50.8922C131.291 55.3219 131.363 59.8959 133.017 63.8991C134.742 68.0663 137.997 71.4591 141.141 74.7403C144.284 78.0216 147.5 81.375 147.5 84C147.5 86.625 144.271 90.0047 141.141 93.2597ZM114.464 64.5356C114.953 65.0232 115.34 65.6022 115.604 66.2396C115.868 66.8769 116.004 67.5601 116.004 68.25C116.004 68.9399 115.868 69.6231 115.604 70.2604C115.34 70.8978 114.953 71.4768 114.464 71.9644L77.7144 108.714C77.2268 109.203 76.6478 109.59 76.0104 109.854C75.3731 110.118 74.6899 110.254 74 110.254C73.3101 110.254 72.6269 110.118 71.9896 109.854C71.3522 109.59 70.7732 109.203 70.2856 108.714L54.5356 92.9644C53.5505 91.9793 52.9971 90.6432 52.9971 89.25C52.9971 87.8568 53.5505 86.5207 54.5356 85.5356C55.5207 84.5505 56.8568 83.9971 58.25 83.9971C59.6432 83.9971 60.9793 84.5505 61.9644 85.5356L74 97.5778L107.036 64.5356C107.523 64.0475 108.102 63.6603 108.74 63.3961C109.377 63.1319 110.06 62.9959 110.75 62.9959C111.44 62.9959 112.123 63.1319 112.76 63.3961C113.398 63.6603 113.977 64.0475 114.464 64.5356Z" fill="#42B981"/>
</g>
</svg>
