<svg width="24" height="24" viewBox="0 0 24 24" fill="none" xmlns="http://www.w3.org/2000/svg">
<g clip-path="url(#clip0_522_1022)">
<circle cx="12" cy="12" r="2" stroke="#FFFCF8" stroke-width="2"/>
<path d="M5.39832 5.87922C4.46858 6.88131 3.79346 8.07052 3.40037 9.3446L4.99967 10.268C6.33301 11.0378 6.33301 12.9623 4.99967 13.7321L3.39866 14.6564C3.59387 15.2865 3.86183 15.9047 4.20553 16.5C4.54922 17.0953 4.95064 17.6365 5.39865 18.1205L6.9997 17.1962C8.33303 16.4264 9.9997 17.3886 9.9997 18.9282L9.9997 20.775C11.2996 21.0716 12.6671 21.0816 13.9998 20.7774L13.9998 18.9283C13.9998 17.3887 15.6665 16.4264 16.9998 17.1962L18.6012 18.1208C19.5309 17.1187 20.206 15.9295 20.5991 14.6554L18.9998 13.732C17.6664 12.9622 17.6664 11.0377 18.9998 10.2679L20.6008 9.34354C20.4056 8.71353 20.1377 8.0953 19.794 7.50001C19.4503 6.9047 19.0488 6.36352 18.6008 5.87944L16.9998 6.8038C15.6665 7.5736 13.9998 6.61135 13.9998 5.07175L13.9998 3.22501C12.6999 2.92841 11.3324 2.91847 9.9997 3.2226L9.9997 5.07172C9.9997 6.61132 8.33303 7.57357 6.9997 6.80377L5.39832 5.87922Z" stroke="#FFFCF8" stroke-width="2" stroke-linejoin="round"/>
</g>
<defs>
<clipPath id="clip0_522_1022">
<rect width="24" height="24" fill="white"/>
</clipPath>
</defs>
</svg>
