<svg width="11" height="4" viewBox="0 0 11 4" fill="none" xmlns="http://www.w3.org/2000/svg">
<path d="M1.89394 3.192C1.5206 3.192 1.20594 3.064 0.949938 2.808C0.693938 2.54133 0.565938 2.22667 0.565938 1.864C0.565938 1.49067 0.693938 1.176 0.949938 0.92C1.20594 0.664 1.5206 0.536 1.89394 0.536C2.26727 0.536 2.58194 0.664 2.83794 0.92C3.09394 1.176 3.22194 1.49067 3.22194 1.864C3.22194 2.22667 3.09394 2.54133 2.83794 2.808C2.58194 3.064 2.26727 3.192 1.89394 3.192ZM5.50331 3.192C5.12998 3.192 4.81531 3.064 4.55931 2.808C4.30331 2.54133 4.17531 2.22667 4.17531 1.864C4.17531 1.49067 4.30331 1.176 4.55931 0.92C4.81531 0.664 5.12998 0.536 5.50331 0.536C5.87665 0.536 6.19131 0.664 6.44731 0.92C6.70331 1.176 6.83131 1.49067 6.83131 1.864C6.83131 2.22667 6.70331 2.54133 6.44731 2.808C6.19131 3.064 5.87665 3.192 5.50331 3.192ZM9.11269 3.192C8.73935 3.192 8.42469 3.064 8.16869 2.808C7.91269 2.54133 7.78469 2.22667 7.78469 1.864C7.78469 1.49067 7.91269 1.176 8.16869 0.92C8.42469 0.664 8.73935 0.536 9.11269 0.536C9.48602 0.536 9.80069 0.664 10.0567 0.92C10.3127 1.176 10.4407 1.49067 10.4407 1.864C10.4407 2.22667 10.3127 2.54133 10.0567 2.808C9.80069 3.064 9.48602 3.192 9.11269 3.192Z" fill="#FFFCF8"/>
</svg>
