<svg width="375" height="240" viewBox="0 0 375 240" fill="none" xmlns="http://www.w3.org/2000/svg">
<g opacity="0.4">
<path d="M299.366 56.4021C317.811 56.028 333.054 41.3466 334.129 22.9246C335.322 2.39866 318.957 -14.6907 298.618 -14.6907C278.279 -14.6907 263.106 1.25313 263.106 20.8206C263.106 40.3881 279.401 56.7761 299.366 56.3787V56.4021Z" fill="#FFFCF8"/>
<path d="M71.4286 55.7006C95.7652 59.6982 116.455 38.9151 112.481 14.6018C110.049 -0.266636 98.3602 -11.9557 83.4683 -14.4104C59.1551 -18.4081 38.3952 2.30496 42.3694 26.6416C44.8241 41.5334 56.5133 53.2459 71.4286 55.7006Z" fill="#FFFCF8"/>
<path d="M379.389 133.316L375.859 126.7C367.98 111.855 354.842 100.54 339.085 94.8357C304.906 82.5856 269.395 69.8445 235.38 57.6411C225.748 54.1812 221.423 43.0065 226.239 33.9825C241.084 6.09242 256.888 -23.551 271.406 -50.8566C273.206 -54.2231 273.042 -58.2909 270.985 -61.5171L268.343 -65.6316C253.989 -88.1447 220.745 -86.8589 208.238 -63.2938C202.347 -52.2827 196.479 -34.0945 190.728 -21.4002C189.699 -19.1326 186.473 -19.1326 185.444 -21.4002C179.67 -34.1881 173.755 -52.4464 167.817 -63.551C155.31 -87.0693 122.066 -88.3785 107.712 -65.8888L105.07 -61.7275C103.013 -58.5013 102.849 -54.4335 104.649 -51.0671C119.167 -23.7848 134.971 5.88202 149.816 33.7721C154.609 42.7961 150.307 53.9708 140.675 57.4307C106.66 69.6341 71.1488 82.3752 36.97 94.6253C21.1898 100.33 8.07469 111.645 0.196269 126.466V126.513L-3.33385 133.106C-8.31339 142.504 -1.53388 153.819 9.07978 153.819H102.896C105.982 153.819 107.969 157.068 106.567 159.803C91.1605 189.727 74.375 222.34 58.9689 252.241C57.5896 254.906 57.683 258.062 59.1792 260.657C60.7455 263.345 63.6444 265.028 66.7537 265.028H309.185C312.317 265.028 315.193 263.368 316.759 260.657C318.255 258.062 318.349 254.906 316.97 252.241C301.821 222.807 285.175 189.774 269.956 160.037C268.553 157.279 270.541 154.006 273.65 154.006H366.975C377.589 154.006 384.392 142.691 379.389 133.339V133.316ZM191.71 230.709C136.865 233.725 100.652 173.807 126.461 125.274C145.421 89.5523 164.731 53.4097 183.714 17.7581C185.515 14.3683 190.377 14.3683 192.177 17.7581C211.23 53.4798 230.587 89.7159 249.641 125.531C273.697 170.744 244.24 227.834 191.733 230.709H191.71Z" fill="#FFFCF8"/>
</g>
</svg>
